<svg xmlns="http://www.w3.org/2000/svg" viewBox="0 0 460 300" role="img" style="max-width:100%;height:auto;font-family:Georgia,serif"><line x1="52" y1="256" x2="442" y2="256" stroke="#1a2332" stroke-width="1"/><line x1="52" y1="16" x2="52" y2="256" stroke="#1a2332" stroke-width="1"/><line x1="52.0" y1="256" x2="52.0" y2="260" stroke="#1a2332" stroke-width="1"/><text x="52.0" y="272" text-anchor="middle" font-size="10" fill="#5b6b7f">0.0</text><line x1="130.0" y1="256" x2="130.0" y2="260" stroke="#1a2332" stroke-width="1"/><text x="130.0" y="272" text-anchor="middle" font-size="10" fill="#5b6b7f">0.2</text><line x1="208.0" y1="256" x2="208.0" y2="260" stroke="#1a2332" stroke-width="1"/><text x="208.0" y="272" text-anchor="middle" font-size="10" fill="#5b6b7f">0.4</text><line x1="286.0" y1="256" x2="286.0" y2="260" stroke="#1a2332" stroke-width="1"/><text x="286.0" y="272" text-anchor="middle" font-size="10" fill="#5b6b7f">0.6</text><line x1="364.0" y1="256" x2="364.0" y2="260" stroke="#1a2332" stroke-width="1"/><text x="364.0" y="272" text-anchor="middle" font-size="10" fill="#5b6b7f">0.8</text><line x1="442.0" y1="256" x2="442.0" y2="260" stroke="#1a2332" stroke-width="1"/><text x="442.0" y="272" text-anchor="middle" font-size="10" fill="#5b6b7f">1.0</text><line x1="48" y1="256.0" x2="52" y2="256.0" stroke="#1a2332" stroke-width="1"/><text x="45" y="259.0" text-anchor="end" font-size="10" fill="#5b6b7f">0.0</text><line x1="48" y1="208.0" x2="52" y2="208.0" stroke="#1a2332" stroke-width="1"/><text x="45" y="211.0" text-anchor="end" font-size="10" fill="#5b6b7f">0.2</text><line x1="48" y1="160.0" x2="52" y2="160.0" stroke="#1a2332" stroke-width="1"/><text x="45" y="163.0" text-anchor="end" font-size="10" fill="#5b6b7f">0.4</text><line x1="48" y1="112.0" x2="52" y2="112.0" stroke="#1a2332" stroke-width="1"/><text x="45" y="115.0" text-anchor="end" font-size="10" fill="#5b6b7f">0.6</text><line x1="48" y1="64.0" x2="52" y2="64.0" stroke="#1a2332" stroke-width="1"/><text x="45" y="67.0" text-anchor="end" font-size="10" fill="#5b6b7f">0.8</text><line x1="48" y1="16.0" x2="52" y2="16.0" stroke="#1a2332" stroke-width="1"/><text x="45" y="19.0" text-anchor="end" font-size="10" fill="#5b6b7f">1.0</text><text x="247.0" y="294" text-anchor="middle" font-size="11" fill="#1a2332">coverage (fraction kept)</text><text x="14" y="136.0" text-anchor="middle" font-size="11" fill="#1a2332" transform="rotate(-90 14 136.0)">accuracy on kept cases</text><path d="M442.0,41.4 L430.8,37.4 L412.0,33.5 L400.8,31.5 L389.5,32.0 L382.0,29.6 L359.5,27.7 L314.5,22.9 L284.5,23.7 L179.5,16.0" stroke="#1d4ed8" stroke-width="2" fill="none"/><circle cx="442.0" cy="41.4" r="3" fill="#1d4ed8"/><circle cx="430.8" cy="37.4" r="3" fill="#1d4ed8"/><circle cx="412.0" cy="33.5" r="3" fill="#1d4ed8"/><circle cx="400.8" cy="31.5" r="3" fill="#1d4ed8"/><circle cx="389.5" cy="32.0" r="3" fill="#1d4ed8"/><circle cx="382.0" cy="29.6" r="3" fill="#1d4ed8"/><circle cx="359.5" cy="27.7" r="3" fill="#1d4ed8"/><circle cx="314.5" cy="22.9" r="3" fill="#1d4ed8"/><circle cx="284.5" cy="23.7" r="3" fill="#1d4ed8"/><circle cx="179.5" cy="16.0" r="3" fill="#1d4ed8"/></svg>