<svg xmlns="http://www.w3.org/2000/svg" viewBox="0 0 460 300" role="img" style="max-width:100%;height:auto;font-family:Georgia,serif"><line x1="52" y1="256" x2="442" y2="256" stroke="#1a2332" stroke-width="1"/><line x1="52" y1="16" x2="52" y2="256" stroke="#1a2332" stroke-width="1"/><line x1="247.0" y1="256" x2="247.0" y2="260" stroke="#1a2332" stroke-width="1"/><text x="247.0" y="272" text-anchor="middle" font-size="10" fill="#5b6b7f">0.5</text><line x1="325.0" y1="256" x2="325.0" y2="260" stroke="#1a2332" stroke-width="1"/><text x="325.0" y="272" text-anchor="middle" font-size="10" fill="#5b6b7f">0.7</text><line x1="364.0" y1="256" x2="364.0" y2="260" stroke="#1a2332" stroke-width="1"/><text x="364.0" y="272" text-anchor="middle" font-size="10" fill="#5b6b7f">0.8</text><line x1="403.0" y1="256" x2="403.0" y2="260" stroke="#1a2332" stroke-width="1"/><text x="403.0" y="272" text-anchor="middle" font-size="10" fill="#5b6b7f">0.9</text><line x1="442.0" y1="256" x2="442.0" y2="260" stroke="#1a2332" stroke-width="1"/><text x="442.0" y="272" text-anchor="middle" font-size="10" fill="#5b6b7f">1.0</text><line x1="48" y1="256.0" x2="52" y2="256.0" stroke="#1a2332" stroke-width="1"/><text x="45" y="259.0" text-anchor="end" font-size="10" fill="#5b6b7f">0.00</text><line x1="48" y1="176.0" x2="52" y2="176.0" stroke="#1a2332" stroke-width="1"/><text x="45" y="179.0" text-anchor="end" font-size="10" fill="#5b6b7f">0.04</text><line x1="48" y1="96.0" x2="52" y2="96.0" stroke="#1a2332" stroke-width="1"/><text x="45" y="99.0" text-anchor="end" font-size="10" fill="#5b6b7f">0.08</text><line x1="48" y1="16.0" x2="52" y2="16.0" stroke="#1a2332" stroke-width="1"/><text x="45" y="19.0" text-anchor="end" font-size="10" fill="#5b6b7f">0.12</text><text x="247.0" y="294" text-anchor="middle" font-size="11" fill="#1a2332">coverage</text><text x="14" y="136.0" text-anchor="middle" font-size="11" fill="#1a2332" transform="rotate(-90 14 136.0)">selective risk</text><path d="M442.0,102.2 L422.5,94.4 L403.0,85.8 L364.0,137.0 L325.0,146.4 L247.0,179.1" stroke="#0f766e" stroke-width="2" fill="none"/><circle cx="442.0" cy="102.2" r="3.5" fill="#0f766e"/><circle cx="422.5" cy="94.4" r="3.5" fill="#0f766e"/><circle cx="403.0" cy="85.8" r="3.5" fill="#0f766e"/><circle cx="364.0" cy="137.0" r="3.5" fill="#0f766e"/><circle cx="325.0" cy="146.4" r="3.5" fill="#0f766e"/><circle cx="247.0" cy="179.1" r="3.5" fill="#0f766e"/><rect x="60" y="20" width="185" height="23" fill="#ffffff" fill-opacity="0.92" stroke="#d4d9e2"/><line x1="66" y1="29" x2="84" y2="29" stroke="#0f766e" stroke-width="2"/><text x="90" y="32" font-size="10" fill="#1a2332">logistic, nested grouped CV</text></svg>