<svg xmlns="http://www.w3.org/2000/svg" viewBox="0 0 460 300" role="img" style="max-width:100%;height:auto;font-family:Georgia,serif"><line x1="52" y1="256" x2="442" y2="256" stroke="#1a2332" stroke-width="1"/><line x1="52" y1="16" x2="52" y2="256" stroke="#1a2332" stroke-width="1"/><line x1="52.0" y1="256" x2="52.0" y2="260" stroke="#1a2332" stroke-width="1"/><text x="52.0" y="272" text-anchor="middle" font-size="10" fill="#5b6b7f">0.0</text><line x1="130.0" y1="256" x2="130.0" y2="260" stroke="#1a2332" stroke-width="1"/><text x="130.0" y="272" text-anchor="middle" font-size="10" fill="#5b6b7f">0.2</text><line x1="208.0" y1="256" x2="208.0" y2="260" stroke="#1a2332" stroke-width="1"/><text x="208.0" y="272" text-anchor="middle" font-size="10" fill="#5b6b7f">0.4</text><line x1="286.0" y1="256" x2="286.0" y2="260" stroke="#1a2332" stroke-width="1"/><text x="286.0" y="272" text-anchor="middle" font-size="10" fill="#5b6b7f">0.6</text><line x1="364.0" y1="256" x2="364.0" y2="260" stroke="#1a2332" stroke-width="1"/><text x="364.0" y="272" text-anchor="middle" font-size="10" fill="#5b6b7f">0.8</text><line x1="442.0" y1="256" x2="442.0" y2="260" stroke="#1a2332" stroke-width="1"/><text x="442.0" y="272" text-anchor="middle" font-size="10" fill="#5b6b7f">1.0</text><line x1="48" y1="256.0" x2="52" y2="256.0" stroke="#1a2332" stroke-width="1"/><text x="45" y="259.0" text-anchor="end" font-size="10" fill="#5b6b7f">0.0</text><line x1="48" y1="208.0" x2="52" y2="208.0" stroke="#1a2332" stroke-width="1"/><text x="45" y="211.0" text-anchor="end" font-size="10" fill="#5b6b7f">0.2</text><line x1="48" y1="160.0" x2="52" y2="160.0" stroke="#1a2332" stroke-width="1"/><text x="45" y="163.0" text-anchor="end" font-size="10" fill="#5b6b7f">0.4</text><line x1="48" y1="112.0" x2="52" y2="112.0" stroke="#1a2332" stroke-width="1"/><text x="45" y="115.0" text-anchor="end" font-size="10" fill="#5b6b7f">0.6</text><line x1="48" y1="64.0" x2="52" y2="64.0" stroke="#1a2332" stroke-width="1"/><text x="45" y="67.0" text-anchor="end" font-size="10" fill="#5b6b7f">0.8</text><line x1="48" y1="16.0" x2="52" y2="16.0" stroke="#1a2332" stroke-width="1"/><text x="45" y="19.0" text-anchor="end" font-size="10" fill="#5b6b7f">1.0</text><text x="247.0" y="294" text-anchor="middle" font-size="11" fill="#1a2332">mean predicted probability</text><text x="14" y="136.0" text-anchor="middle" font-size="11" fill="#1a2332" transform="rotate(-90 14 136.0)">observed AI frequency</text><line x1="52" y1="256" x2="442" y2="16" stroke="#5b6b7f" stroke-width="1" stroke-dasharray="4 4"/><circle cx="182.0" cy="46.0" r="7.2" fill="#1d4ed8" fill-opacity="0.55" stroke="#1d4ed8"/><circle cx="346.2" cy="58.4" r="12.0" fill="#1d4ed8" fill-opacity="0.55" stroke="#1d4ed8"/><circle cx="372.1" cy="106.0" r="7.2" fill="#1d4ed8" fill-opacity="0.55" stroke="#1d4ed8"/><circle cx="432.1" cy="16.0" r="3.5" fill="#1d4ed8" fill-opacity="0.55" stroke="#1d4ed8"/><text x="64" y="23" font-size="10.5" fill="#5b6b7f">ECE 0.127 · Brier 0.161 · held-out folds, n=104</text></svg>