<svg xmlns="http://www.w3.org/2000/svg" viewBox="0 0 460 300" role="img" style="max-width:100%;height:auto;font-family:Georgia,serif"><line x1="52" y1="236" x2="442" y2="236" stroke="#1a2332" stroke-width="1"/><line x1="52" y1="30" x2="52" y2="236" stroke="#1a2332" stroke-width="1"/><line x1="48" y1="236.0" x2="52" y2="236.0" stroke="#1a2332" stroke-width="1"/><text x="45" y="239.0" text-anchor="end" font-size="10" fill="#5b6b7f">0.00</text><line x1="48" y1="197.1" x2="52" y2="197.1" stroke="#1a2332" stroke-width="1"/><text x="45" y="200.1" text-anchor="end" font-size="10" fill="#5b6b7f">0.20</text><line x1="48" y1="158.1" x2="52" y2="158.1" stroke="#1a2332" stroke-width="1"/><text x="45" y="161.1" text-anchor="end" font-size="10" fill="#5b6b7f">0.40</text><line x1="48" y1="119.2" x2="52" y2="119.2" stroke="#1a2332" stroke-width="1"/><text x="45" y="122.2" text-anchor="end" font-size="10" fill="#5b6b7f">0.60</text><text x="247.0" y="294" text-anchor="middle" font-size="11" fill="#1a2332"></text><text x="14" y="133.0" text-anchor="middle" font-size="11" fill="#1a2332" transform="rotate(-90 14 133.0)">per-family F1 (out-of-fold)</text><rect x="52" y="218.5" width="390" height="7.8" fill="#b91c1c" fill-opacity="0.14"/><rect x="62.0" y="84.4" width="35.7" height="151.6" fill="#1d4ed8" fill-opacity="0.8"/><text x="79.9" y="79.4" text-anchor="middle" font-size="9.5" fill="#1a2332">0.78</text><text x="79.9" y="248" text-anchor="end" font-size="9" fill="#5b6b7f" transform="rotate(-28 79.9 248)">gemma-2-9b</text><rect x="117.7" y="61.4" width="35.7" height="174.6" fill="#1d4ed8" fill-opacity="0.8"/><text x="135.6" y="56.4" text-anchor="middle" font-size="9.5" fill="#1a2332">0.90</text><text x="135.6" y="248" text-anchor="end" font-size="9" fill="#5b6b7f" transform="rotate(-28 135.6 248)">gpt-4o</text><rect x="173.5" y="67.7" width="35.7" height="168.3" fill="#1d4ed8" fill-opacity="0.8"/><text x="191.3" y="62.7" text-anchor="middle" font-size="9.5" fill="#1a2332">0.86</text><text x="191.3" y="248" text-anchor="end" font-size="9" fill="#5b6b7f" transform="rotate(-28 191.3 248)">human</text><rect x="229.2" y="125.0" width="35.7" height="111.0" fill="#1d4ed8" fill-opacity="0.8"/><text x="247.0" y="120.0" text-anchor="middle" font-size="9.5" fill="#1a2332">0.57</text><text x="247.0" y="248" text-anchor="end" font-size="9" fill="#5b6b7f" transform="rotate(-28 247.0 248)">llama-8b</text><rect x="284.9" y="143.8" width="35.7" height="92.2" fill="#1d4ed8" fill-opacity="0.8"/><text x="302.7" y="138.8" text-anchor="middle" font-size="9.5" fill="#1a2332">0.47</text><text x="302.7" y="248" text-anchor="end" font-size="9" fill="#5b6b7f" transform="rotate(-28 302.7 248)">mistral-7b</text><rect x="340.6" y="111.2" width="35.7" height="124.8" fill="#1d4ed8" fill-opacity="0.8"/><text x="358.4" y="106.2" text-anchor="middle" font-size="9.5" fill="#1a2332">0.64</text><text x="358.4" y="248" text-anchor="end" font-size="9" fill="#5b6b7f" transform="rotate(-28 358.4 248)">qwen-2-72b</text><rect x="396.3" y="114.6" width="35.7" height="121.4" fill="#1d4ed8" fill-opacity="0.8"/><text x="414.1" y="109.6" text-anchor="middle" font-size="9.5" fill="#1a2332">0.62</text><text x="414.1" y="248" text-anchor="end" font-size="9" fill="#5b6b7f" transform="rotate(-28 414.1 248)">yi-large</text><rect x="60" y="32" width="264" height="38" fill="#ffffff" fill-opacity="0.92" stroke="#d4d9e2"/><circle cx="75" cy="41" r="4" fill="#1d4ed8"/><text x="90" y="44" font-size="10" fill="#1a2332">multinomial-logistic (macro-F1 0.693)</text><rect x="66" y="51" width="18" height="9" fill="#b91c1c" fill-opacity="0.25"/><text x="90" y="59" font-size="10" fill="#1a2332">Roy et al. 2026 attribution accuracy 5–9%</text></svg>